<svg width="1024" height="1024" viewBox="0 0 1024 1024" fill="none" xmlns="http://www.w3.org/2000/svg">
<rect width="1024" height="1024" fill="white"/>
<path d="M536.452 728.624C553.737 703.48 567.869 676.661 578.97 648.252C580.572 644.154 583.05 643.129 587.325 643.964C625.913 651.5 648.032 679.773 652.356 713.308C658.455 760.602 627.15 787.847 599.193 798.368C580.581 805.371 561.16 805.249 541.762 805.276C535.727 805.284 533.005 807.245 533.064 813.716C533.284 837.98 533.242 862.248 532.992 886.511C532.933 892.247 535.118 894.247 540.626 894.087C555.164 893.666 569.689 893.773 584.243 892.811C618.382 890.555 649.034 879.306 676.024 858.555C733.136 814.645 757.302 744.515 736.64 676.403C716.739 610.798 669.92 574.047 603.819 560.47C598.986 559.477 596.631 557.776 596.62 552.618C596.607 547.024 596.066 541.406 595.373 535.846C594.994 532.812 596.602 528.489 592.272 527.282C588.789 526.312 586.899 529.775 584.878 531.882C558.551 559.338 532.333 586.898 506.009 614.357C503.675 616.793 502.623 620.868 497.578 621.124C493.071 614.075 488.346 606.856 483.791 599.532C454.81 552.927 425.901 506.278 396.877 459.7C391.835 451.609 391.496 451.737 384.35 457.653C338.953 495.233 306.232 542.077 283.268 596.033C278.738 606.678 279.096 607.089 290.518 607.103C346.2 607.171 401.883 607.22 457.565 607.325C468.74 607.346 470.072 608.586 471.552 619.714C474.668 643.148 474.664 666.715 471.281 689.986C462.796 748.356 437.333 799.778 404.279 847.818C397.768 857.281 390.5 866.224 383.581 875.406C384.096 875.844 384.61 876.282 385.125 876.719C443.446 836.017 495.346 788.675 536.452 728.624ZM415.44 431.371C417.866 433.993 420.317 436.594 422.716 439.241C457.16 477.249 491.62 515.242 525.999 553.308C529.451 557.13 532.161 558.745 536.441 554.046C558.254 530.092 580.339 506.387 602.234 482.507C625.339 457.306 648.397 432.063 671.362 406.735C692.441 383.486 713.402 360.13 734.302 336.721C735.985 334.836 738.912 333.194 737.604 328.842C600.941 328.943 464.13 327.68 327.324 329.298C326.976 330.014 326.628 330.73 326.28 331.446C355.757 364.486 385.233 397.526 415.44 431.371ZM467.016 162.618C453.107 185.214 449.907 209.071 458.078 234.485C467.848 264.868 498.986 287.9 530.888 288.599C555.317 289.134 574.596 279.086 591.165 261.869C618.33 233.642 618.38 182.994 591.915 154.041C557.819 116.738 496.504 119.161 467.016 162.618Z" fill="black"/>
</svg>
